<svg width="20" height="20" viewBox="0 0 20 20" fill="none" xmlns="http://www.w3.org/2000/svg">
<path d="M17.1602 15.2255C17.3149 15.0747 17.3927 14.8828 17.3927 14.6668C17.3927 14.447 17.3095 14.2538 17.1487 14.1038C16.9891 13.9548 16.7908 13.8835 16.5713 13.8835H15.107V12.5202C15.107 12.3004 15.0238 12.1073 14.8597 11.9605L14.8593 11.9602C14.699 11.8173 14.5021 11.7502 14.2856 11.7502C14.0661 11.7502 13.8678 11.8215 13.7081 11.9705C13.5474 12.1205 13.4641 12.3136 13.4641 12.5335V13.8835H11.9856C11.7661 13.8835 11.5678 13.9549 11.4111 14.1075L11.4108 14.1078C11.2563 14.2589 11.1784 14.4508 11.1784 14.6668C11.1784 14.8864 11.2613 15.0794 11.4219 15.2293C11.5817 15.3785 11.7801 15.4502 11.9999 15.4502H13.4641V16.8135C13.4641 17.0335 13.5476 17.2265 13.7121 17.3732C13.8721 17.5163 14.0691 17.5835 14.2856 17.5835C14.5053 17.5835 14.7037 17.5119 14.8636 17.3627C15.0242 17.2128 15.107 17.0198 15.107 16.8002V15.4502H16.5856C16.8052 15.4502 17.0036 15.3784 17.1602 15.2255ZM17.1602 15.2255C17.1601 15.2255 17.1601 15.2256 17.16 15.2256L16.9856 15.0466L17.1603 15.2253C17.1603 15.2254 17.1602 15.2254 17.1602 15.2255ZM9.24847 16.6419L9.24852 16.642C9.53498 17.262 9.92305 17.7998 10.4133 18.2574C10.9036 18.7151 11.4818 19.0789 12.1503 19.348L12.1504 19.348C12.8144 19.6156 13.5253 19.7502 14.2856 19.7502C15.0458 19.7502 15.7568 19.6156 16.4207 19.348L16.4208 19.348C17.0894 19.0789 17.6675 18.7151 18.1579 18.2574C18.6481 17.7998 19.0362 17.262 19.3226 16.642L19.3227 16.6419C19.6072 16.0269 19.7499 15.3695 19.7499 14.6668C19.7499 13.9641 19.6072 13.3067 19.3227 12.6918L19.3226 12.6917C19.0362 12.0717 18.6481 11.5338 18.1579 11.0763C17.6675 10.6186 17.0894 10.2546 16.4208 9.98515L9.24847 16.6419ZM9.24847 16.6419C8.96399 16.0269 8.82129 15.3695 8.82129 14.6668C8.82129 13.9641 8.96399 13.3067 9.24847 12.6918L9.24852 12.6917M9.24847 16.6419L9.24852 12.6917M9.24852 12.6917C9.53498 12.0717 9.92305 11.5338 10.4133 11.0763M9.24852 12.6917L10.4133 11.0763M10.4133 11.0763C10.9036 10.6186 11.4818 10.2546 12.1503 9.98515L10.4133 11.0763ZM12.1504 9.98511C12.8144 9.7179 13.5253 9.5835 14.2856 9.5835C15.0458 9.5835 15.7568 9.7179 16.4207 9.98511H12.1504Z" stroke="#A0A0A0" stroke-width="0.5"/>
<path fill-rule="evenodd" clip-rule="evenodd" d="M7.14286 7.66667H7.80225L8.062 7.06059L10 2.53859L11.938 7.06059L12.1977 7.66667H12.8571H17.1946L15.0896 9.38572C15.5139 9.44147 15.9231 9.54071 16.3121 9.67845L18.7755 7.66667L20 6.66667H18.4191H12.8571L10.544 1.2693L10 0L9.45602 1.2693L7.14286 6.66667H1.58094H0L1.22449 7.66667L5.71429 11.3333L3.41359 17.7753L2.85714 19.3333L4.24218 18.4284L8.64916 15.5492C8.59794 15.2621 8.57129 14.9673 8.57129 14.6667C8.57129 14.5776 8.57363 14.489 8.57825 14.401L4.79863 16.8704L6.65603 11.6697L6.89336 11.0051L6.34682 10.5588L2.80543 7.66667H7.14286ZM17.1034 19.3075L17.1429 19.3333L17.1288 19.294C17.1203 19.2985 17.1119 19.303 17.1034 19.3075Z" fill="#A0A0A0"/>
</svg>
